<?xml version="1.0" standalone="no"?>
<!DOCTYPE svg PUBLIC "-//W3C//DTD SVG 20010904//EN"
 "http://www.w3.org/TR/2001/REC-SVG-20010904/DTD/svg10.dtd">
<svg version="1.0" xmlns="http://www.w3.org/2000/svg"
 width="1240.000000pt" height="300.000000pt" viewBox="0 0 1240.000000 300.000000"
 preserveAspectRatio="xMidYMid meet">

<g transform="translate(0.000000,300.000000) scale(0.100000,-0.100000)"
fill="#000000" stroke="none">
<path d="M1325 2980 c-94 -11 -129 -24 -150 -56 -17 -27 -20 -76 -5 -105 22
-41 63 -51 158 -38 82 11 301 7 394 -7 34 -6 42 -2 74 30 32 32 36 41 31 73
-9 52 -42 81 -107 93 -78 15 -300 20 -395 10z"/>
<path d="M849 2840 c-114 -34 -414 -261 -445 -336 -23 -56 11 -118 72 -130 40
-7 65 5 134 70 72 68 146 122 248 181 46 27 90 58 98 69 17 24 18 79 3 108 -8
16 -69 51 -81 47 -2 0 -15 -4 -29 -9z"/>
<path d="M2057 2829 c-28 -17 -49 -68 -43 -104 7 -38 24 -54 86 -85 71 -36
177 -111 273 -194 74 -63 94 -76 124 -76 49 0 93 45 93 95 0 31 -9 46 -57 97
-116 121 -355 278 -424 278 -19 0 -42 -5 -52 -11z"/>
<path d="M1335 2579 c-84 -12 -222 -53 -301 -89 -151 -68 -314 -201 -314 -254
0 -58 46 -106 103 -106 14 0 51 21 88 51 186 149 360 209 604 209 126 0 127 0
156 29 54 55 29 139 -49 161 -43 12 -201 11 -287 -1z"/>
<path d="M1922 2435 c-65 -55 -48 -118 52 -183 198 -131 344 -337 396 -560 14
-63 46 -92 99 -92 44 0 74 19 91 59 10 25 9 43 -9 110 -67 268 -249 513 -485
655 -71 42 -104 45 -144 11z"/>
<path d="M201 2223 c-73 -51 -213 -487 -180 -564 16 -39 46 -59 87 -59 68 0
91 30 112 145 17 92 50 193 100 304 37 83 40 95 30 125 -20 61 -97 86 -149 49z"/>
<path d="M2681 2226 c-28 -15 -50 -52 -51 -82 0 -12 18 -60 40 -108 44 -96 83
-220 101 -323 15 -85 40 -113 101 -113 64 1 98 36 98 102 0 44 -42 214 -76
308 -72 201 -131 261 -213 216z"/>
<path d="M3380 2080 l0 -120 210 0 210 0 0 -580 0 -580 140 0 140 0 0 580 0
580 210 0 210 0 0 120 0 120 -560 0 -560 0 0 -120z"/>
<path d="M12130 1940 l0 -260 -42 46 c-23 25 -65 58 -93 72 -44 24 -61 27
-150 27 -92 0 -106 -3 -168 -32 -170 -81 -260 -254 -260 -498 0 -183 45 -308
147 -411 80 -80 147 -107 266 -108 118 -1 177 21 252 93 l58 57 0 -63 0 -63
130 0 130 0 0 700 0 700 -135 0 -135 0 0 -260z m-170 -331 c96 -20 151 -92
171 -221 26 -170 -22 -318 -122 -368 -127 -65 -259 -13 -305 122 -25 72 -25
243 0 313 31 87 81 139 149 155 46 11 50 11 107 -1z"/>
<path d="M1340 2174 c-36 -8 -108 -35 -160 -60 -77 -38 -110 -62 -176 -128
-66 -67 -89 -99 -127 -176 -66 -134 -80 -199 -75 -340 8 -193 70 -334 207
-470 138 -137 327 -208 520 -197 177 10 327 76 451 197 254 250 278 649 56
927 -167 208 -435 303 -696 247z m303 -204 c126 -39 237 -134 296 -255 38 -76
50 -132 51 -220 1 -279 -219 -497 -500 -497 -215 0 -396 130 -472 339 -30 82
-30 233 1 317 55 152 180 273 336 322 64 20 212 17 288 -6z"/>
<path d="M540 1992 c-30 -14 -40 -29 -69 -101 -95 -240 -95 -545 0 -792 34
-87 57 -109 118 -109 32 0 44 6 65 31 34 40 33 61 -8 182 -61 178 -68 321 -26
502 10 44 28 102 39 128 37 85 21 142 -46 168 -32 12 -32 12 -73 -9z"/>
<path d="M5404 1815 c-157 -34 -268 -138 -289 -272 l-7 -43 120 0 120 0 6 33
c8 41 51 84 97 97 49 14 144 12 183 -4 70 -29 99 -113 56 -156 -30 -30 -57
-38 -199 -60 -242 -39 -341 -88 -396 -194 -26 -52 -30 -70 -29 -137 0 -66 5
-87 30 -136 59 -116 174 -169 346 -161 112 5 181 32 233 89 21 24 37 34 39 27
2 -7 9 -32 15 -55 l12 -43 130 0 130 0 -16 30 c-12 24 -15 79 -15 317 0 321
-9 430 -40 496 -28 60 -84 115 -145 143 -93 43 -259 56 -381 29z m314 -608
c-4 -110 -25 -158 -84 -200 -81 -57 -217 -61 -276 -8 -24 22 -31 37 -35 77 -8
95 37 130 232 178 61 15 117 31 125 36 38 24 43 13 38 -83z"/>
<path d="M6603 1816 c-61 -20 -108 -52 -153 -104 l-40 -47 0 68 0 67 -130 0
-130 0 0 -500 0 -500 130 0 130 0 0 278 c0 152 5 304 10 337 19 119 102 190
213 183 64 -5 98 -25 135 -78 22 -33 22 -37 22 -376 l0 -344 136 0 135 0 -3
378 c-3 367 -4 379 -26 434 -31 77 -107 159 -174 188 -65 29 -192 37 -255 16z"/>
<path d="M7493 1815 c-126 -27 -227 -108 -254 -202 -22 -76 -17 -173 12 -230
48 -92 134 -136 347 -178 199 -39 242 -62 242 -127 0 -75 -63 -118 -172 -118
-117 0 -183 36 -214 117 l-17 43 -122 0 -123 0 12 -52 c19 -79 49 -129 110
-186 112 -102 316 -139 501 -92 129 33 204 89 246 185 31 69 30 171 -1 243
-42 98 -121 145 -315 186 -263 57 -285 67 -285 135 0 39 20 66 69 91 31 16
147 17 193 1 43 -14 87 -61 95 -102 l6 -29 119 0 120 0 -7 38 c-17 91 -74 175
-158 229 -88 56 -268 77 -404 48z"/>
<path d="M8553 1815 c-127 -35 -251 -134 -305 -247 -105 -215 -66 -497 88
-652 141 -141 366 -183 567 -106 114 43 225 179 243 298 l7 43 -128 -3 -128
-3 -14 -40 c-24 -70 -73 -108 -155 -120 -70 -11 -147 15 -192 65 -61 68 -70
99 -70 245 -1 116 2 136 23 182 81 180 314 192 386 20 l15 -37 126 0 126 0 -7
38 c-20 112 -121 238 -228 287 -99 46 -249 58 -354 30z"/>
<path d="M9621 1814 c-242 -65 -398 -313 -363 -580 20 -149 71 -255 164 -339
184 -166 510 -165 688 1 50 46 110 147 110 183 0 20 -4 21 -125 21 l-125 0
-25 -40 c-35 -56 -87 -80 -175 -80 -85 0 -146 25 -190 78 -31 38 -60 110 -60
149 l0 23 361 0 362 0 -6 83 c-20 273 -159 461 -375 506 -71 15 -175 13 -241
-5z m195 -199 c74 -22 129 -86 144 -167 l7 -38 -223 0 c-137 0 -224 4 -224 10
0 5 9 33 20 63 26 68 75 116 137 133 63 17 80 17 139 -1z"/>
<path d="M10845 1821 c-57 -15 -106 -44 -150 -89 -25 -25 -45 -49 -45 -54 0
-4 -4 -8 -10 -8 -6 0 -10 28 -10 65 l0 65 -130 0 -130 0 0 -500 0 -500 135 0
134 0 3 323 c3 312 4 323 26 368 64 131 257 148 326 29 20 -33 21 -53 24 -377
l3 -343 130 0 130 0 -3 388 -3 387 -33 67 c-36 74 -91 129 -161 160 -48 22
-184 33 -236 19z"/>
<path d="M4883 1810 c-76 -16 -119 -48 -177 -135 l-26 -40 0 83 0 82 -125 0
-125 0 0 -500 0 -500 129 0 130 0 3 293 c3 283 4 294 27 345 13 28 39 65 57
82 39 34 118 60 181 60 l43 0 0 114 0 114 -31 6 c-17 3 -34 6 -38 5 -3 -1 -25
-5 -48 -9z"/>
<path d="M73 1385 c-20 -8 -39 -28 -49 -49 -16 -33 -16 -40 10 -158 41 -182
121 -379 168 -412 36 -26 85 -20 119 13 39 39 38 83 -2 162 -39 79 -84 216
-104 320 -17 91 -25 106 -72 126 -38 15 -30 16 -70 -2z"/>
<path d="M2449 1392 c-41 -5 -67 -42 -89 -126 -56 -213 -187 -393 -381 -524
-81 -54 -89 -64 -89 -117 0 -45 35 -84 80 -91 28 -4 47 2 95 31 240 146 415
382 486 657 20 76 20 79 2 115 -20 40 -60 61 -104 55z"/>
<path d="M2808 1363 c-21 -22 -31 -51 -48 -132 -21 -102 -66 -235 -109 -319
-30 -58 -27 -97 8 -133 38 -38 97 -41 129 -6 66 70 181 402 182 525 0 81 -107
123 -162 65z"/>
<path d="M754 826 c-66 -66 -32 -131 119 -232 204 -138 437 -204 671 -191 90
5 100 8 127 33 38 36 40 90 5 131 -24 28 -24 28 -188 35 -244 9 -371 53 -550
188 -108 83 -133 87 -184 36z"/>
<path d="M439 605 c-33 -18 -53 -64 -44 -104 12 -55 179 -196 358 -302 103
-61 151 -66 191 -18 30 35 34 83 11 116 -8 12 -47 39 -87 61 -89 49 -185 118
-258 187 -83 78 -116 90 -171 60z"/>
<path d="M2374 544 c-95 -83 -200 -157 -281 -198 -85 -42 -107 -113 -54 -167
45 -44 88 -40 189 18 164 95 345 249 357 304 14 61 -35 119 -99 119 -17 0 -53
-25 -112 -76z"/>
<path d="M1215 211 c-61 -26 -80 -111 -34 -157 44 -43 265 -65 454 -45 130 14
154 24 177 71 23 47 12 88 -32 117 -28 20 -40 22 -89 15 -71 -9 -329 -9 -401
0 -30 4 -64 3 -75 -1z"/>
</g>
</svg>
